<mxfile host="app.diagrams.net" modified="2023-03-27T14:25:28.145Z" agent="Mozilla/5.0 (Windows NT 10.0; Win64; x64) AppleWebKit/537.36 (KHTML, like Gecko) Chrome/110.0.0.0 Safari/537.36 Edg/110.0.1587.63" etag="SkZTJ6lzOf3BrJpyofj1" version="21.1.1" type="github">
  <diagram name="Página-1" id="hpnTDh2bMaopZNx7wuCb">
    <mxGraphModel dx="794" dy="740" grid="1" gridSize="10" guides="1" tooltips="1" connect="1" arrows="1" fold="1" page="1" pageScale="1" pageWidth="827" pageHeight="1169" math="0" shadow="0">
      <root>
        <mxCell id="0" />
        <mxCell id="1" parent="0" />
        <mxCell id="9I1INDpwfXQejEhpepl7-21" style="edgeStyle=orthogonalEdgeStyle;rounded=0;orthogonalLoop=1;jettySize=auto;html=1;exitX=0.5;exitY=1;exitDx=0;exitDy=0;entryX=0;entryY=0.5;entryDx=0;entryDy=0;endArrow=none;endFill=0;" parent="1" source="9I1INDpwfXQejEhpepl7-4" target="9I1INDpwfXQejEhpepl7-15" edge="1">
          <mxGeometry relative="1" as="geometry">
            <mxPoint x="490" y="470" as="targetPoint" />
            <Array as="points">
              <mxPoint x="380" y="400" />
              <mxPoint x="380" y="490" />
              <mxPoint x="510" y="490" />
              <mxPoint x="510" y="460" />
            </Array>
          </mxGeometry>
        </mxCell>
        <mxCell id="9I1INDpwfXQejEhpepl7-24" style="edgeStyle=orthogonalEdgeStyle;rounded=0;orthogonalLoop=1;jettySize=auto;html=1;exitX=0;exitY=1;exitDx=0;exitDy=0;entryX=0.44;entryY=0.05;entryDx=0;entryDy=0;entryPerimeter=0;endArrow=none;endFill=0;" parent="1" source="9I1INDpwfXQejEhpepl7-4" target="9I1INDpwfXQejEhpepl7-10" edge="1">
          <mxGeometry relative="1" as="geometry" />
        </mxCell>
        <mxCell id="9I1INDpwfXQejEhpepl7-25" style="edgeStyle=orthogonalEdgeStyle;rounded=0;orthogonalLoop=1;jettySize=auto;html=1;entryX=1;entryY=0.5;entryDx=0;entryDy=0;endArrow=none;endFill=0;" parent="1" source="9I1INDpwfXQejEhpepl7-4" target="9I1INDpwfXQejEhpepl7-23" edge="1">
          <mxGeometry relative="1" as="geometry" />
        </mxCell>
        <mxCell id="9I1INDpwfXQejEhpepl7-27" style="edgeStyle=orthogonalEdgeStyle;rounded=0;orthogonalLoop=1;jettySize=auto;html=1;exitX=0.5;exitY=0;exitDx=0;exitDy=0;entryX=0.5;entryY=1;entryDx=0;entryDy=0;endArrow=none;endFill=0;" parent="1" source="9I1INDpwfXQejEhpepl7-4" target="9I1INDpwfXQejEhpepl7-13" edge="1">
          <mxGeometry relative="1" as="geometry" />
        </mxCell>
        <mxCell id="9I1INDpwfXQejEhpepl7-28" style="edgeStyle=orthogonalEdgeStyle;rounded=0;orthogonalLoop=1;jettySize=auto;html=1;exitX=0;exitY=0;exitDx=0;exitDy=0;entryX=0.5;entryY=1;entryDx=0;entryDy=0;endArrow=none;endFill=0;" parent="1" source="9I1INDpwfXQejEhpepl7-4" target="9I1INDpwfXQejEhpepl7-12" edge="1">
          <mxGeometry relative="1" as="geometry" />
        </mxCell>
        <mxCell id="9I1INDpwfXQejEhpepl7-29" value="" style="edgeStyle=orthogonalEdgeStyle;rounded=0;orthogonalLoop=1;jettySize=auto;html=1;endArrow=none;endFill=0;" parent="1" source="9I1INDpwfXQejEhpepl7-4" target="9I1INDpwfXQejEhpepl7-11" edge="1">
          <mxGeometry relative="1" as="geometry" />
        </mxCell>
        <mxCell id="9I1INDpwfXQejEhpepl7-4" value="USUARIO&amp;nbsp;" style="whiteSpace=wrap;html=1;align=center;" parent="1" vertex="1">
          <mxGeometry x="330" y="360" width="110" height="40" as="geometry" />
        </mxCell>
        <mxCell id="9I1INDpwfXQejEhpepl7-30" style="edgeStyle=orthogonalEdgeStyle;rounded=0;orthogonalLoop=1;jettySize=auto;html=1;exitX=0;exitY=0.5;exitDx=0;exitDy=0;entryX=1;entryY=0;entryDx=0;entryDy=0;endArrow=none;endFill=0;" parent="1" source="9I1INDpwfXQejEhpepl7-7" target="9I1INDpwfXQejEhpepl7-4" edge="1">
          <mxGeometry relative="1" as="geometry" />
        </mxCell>
        <mxCell id="9I1INDpwfXQejEhpepl7-7" value="PASSWORD" style="ellipse;whiteSpace=wrap;html=1;align=center;" parent="1" vertex="1">
          <mxGeometry x="490" y="320" width="100" height="40" as="geometry" />
        </mxCell>
        <mxCell id="9I1INDpwfXQejEhpepl7-10" value="A_MATERNO" style="ellipse;whiteSpace=wrap;html=1;align=center;" parent="1" vertex="1">
          <mxGeometry x="200" y="470" width="100" height="40" as="geometry" />
        </mxCell>
        <mxCell id="Rhx4nIrISmLSo7I5DOPV-4" style="edgeStyle=orthogonalEdgeStyle;rounded=0;orthogonalLoop=1;jettySize=auto;html=1;exitX=1;exitY=0.5;exitDx=0;exitDy=0;entryX=0;entryY=0.5;entryDx=0;entryDy=0;endArrow=none;endFill=0;" edge="1" parent="1" source="9I1INDpwfXQejEhpepl7-11" target="9I1INDpwfXQejEhpepl7-36">
          <mxGeometry relative="1" as="geometry" />
        </mxCell>
        <mxCell id="9I1INDpwfXQejEhpepl7-11" value="ID_PLANTEL" style="ellipse;whiteSpace=wrap;html=1;align=center;" parent="1" vertex="1">
          <mxGeometry x="500" y="380" width="100" height="40" as="geometry" />
        </mxCell>
        <mxCell id="9I1INDpwfXQejEhpepl7-12" value="ID_USUARIO" style="ellipse;whiteSpace=wrap;html=1;align=center;" parent="1" vertex="1">
          <mxGeometry x="200" y="260" width="100" height="40" as="geometry" />
        </mxCell>
        <mxCell id="9I1INDpwfXQejEhpepl7-13" value="TELEFONO&amp;nbsp;" style="ellipse;whiteSpace=wrap;html=1;align=center;" parent="1" vertex="1">
          <mxGeometry x="330" y="260" width="100" height="40" as="geometry" />
        </mxCell>
        <mxCell id="9I1INDpwfXQejEhpepl7-14" value="A_PATERNO" style="ellipse;whiteSpace=wrap;html=1;align=center;" parent="1" vertex="1">
          <mxGeometry x="330" y="470" width="100" height="40" as="geometry" />
        </mxCell>
        <mxCell id="Rhx4nIrISmLSo7I5DOPV-3" style="edgeStyle=orthogonalEdgeStyle;rounded=0;orthogonalLoop=1;jettySize=auto;html=1;entryX=0.5;entryY=0;entryDx=0;entryDy=0;endArrow=none;endFill=0;" edge="1" parent="1" source="9I1INDpwfXQejEhpepl7-15" target="9I1INDpwfXQejEhpepl7-58">
          <mxGeometry relative="1" as="geometry" />
        </mxCell>
        <mxCell id="9I1INDpwfXQejEhpepl7-15" value="ID_TUSUARIO" style="ellipse;whiteSpace=wrap;html=1;align=center;" parent="1" vertex="1">
          <mxGeometry x="500" y="440" width="100" height="40" as="geometry" />
        </mxCell>
        <mxCell id="9I1INDpwfXQejEhpepl7-31" style="edgeStyle=orthogonalEdgeStyle;rounded=0;orthogonalLoop=1;jettySize=auto;html=1;exitX=0;exitY=0.5;exitDx=0;exitDy=0;entryX=1;entryY=0;entryDx=0;entryDy=0;endArrow=none;endFill=0;" parent="1" source="9I1INDpwfXQejEhpepl7-16" target="9I1INDpwfXQejEhpepl7-4" edge="1">
          <mxGeometry relative="1" as="geometry" />
        </mxCell>
        <mxCell id="9I1INDpwfXQejEhpepl7-16" value="EMAIL&amp;nbsp;" style="ellipse;whiteSpace=wrap;html=1;align=center;" parent="1" vertex="1">
          <mxGeometry x="460" y="260" width="100" height="40" as="geometry" />
        </mxCell>
        <mxCell id="9I1INDpwfXQejEhpepl7-23" value="NOMBRE" style="ellipse;whiteSpace=wrap;html=1;align=center;" parent="1" vertex="1">
          <mxGeometry x="200" y="360" width="100" height="40" as="geometry" />
        </mxCell>
        <mxCell id="9I1INDpwfXQejEhpepl7-37" style="edgeStyle=orthogonalEdgeStyle;rounded=0;orthogonalLoop=1;jettySize=auto;html=1;exitX=0;exitY=0;exitDx=0;exitDy=0;entryX=1;entryY=0.5;entryDx=0;entryDy=0;endArrow=none;endFill=0;" parent="1" source="9I1INDpwfXQejEhpepl7-32" target="9I1INDpwfXQejEhpepl7-36" edge="1">
          <mxGeometry relative="1" as="geometry" />
        </mxCell>
        <mxCell id="9I1INDpwfXQejEhpepl7-39" style="edgeStyle=orthogonalEdgeStyle;rounded=0;orthogonalLoop=1;jettySize=auto;html=1;exitX=0;exitY=0.5;exitDx=0;exitDy=0;entryX=1;entryY=0.5;entryDx=0;entryDy=0;endArrow=none;endFill=0;" parent="1" source="9I1INDpwfXQejEhpepl7-32" target="9I1INDpwfXQejEhpepl7-38" edge="1">
          <mxGeometry relative="1" as="geometry" />
        </mxCell>
        <mxCell id="9I1INDpwfXQejEhpepl7-44" style="edgeStyle=orthogonalEdgeStyle;rounded=0;orthogonalLoop=1;jettySize=auto;html=1;exitX=0;exitY=1;exitDx=0;exitDy=0;entryX=1;entryY=0.725;entryDx=0;entryDy=0;entryPerimeter=0;endArrow=none;endFill=0;" parent="1" source="9I1INDpwfXQejEhpepl7-32" target="9I1INDpwfXQejEhpepl7-35" edge="1">
          <mxGeometry relative="1" as="geometry" />
        </mxCell>
        <mxCell id="9I1INDpwfXQejEhpepl7-45" style="edgeStyle=orthogonalEdgeStyle;rounded=0;orthogonalLoop=1;jettySize=auto;html=1;exitX=0.5;exitY=1;exitDx=0;exitDy=0;entryX=0.5;entryY=0;entryDx=0;entryDy=0;endArrow=none;endFill=0;" parent="1" source="9I1INDpwfXQejEhpepl7-32" target="9I1INDpwfXQejEhpepl7-34" edge="1">
          <mxGeometry relative="1" as="geometry" />
        </mxCell>
        <mxCell id="9I1INDpwfXQejEhpepl7-47" style="edgeStyle=orthogonalEdgeStyle;rounded=0;orthogonalLoop=1;jettySize=auto;html=1;exitX=1;exitY=0.5;exitDx=0;exitDy=0;endArrow=none;endFill=0;" parent="1" source="9I1INDpwfXQejEhpepl7-32" target="9I1INDpwfXQejEhpepl7-46" edge="1">
          <mxGeometry relative="1" as="geometry" />
        </mxCell>
        <mxCell id="9I1INDpwfXQejEhpepl7-49" style="edgeStyle=orthogonalEdgeStyle;rounded=0;orthogonalLoop=1;jettySize=auto;html=1;exitX=1;exitY=0.25;exitDx=0;exitDy=0;endArrow=none;endFill=0;" parent="1" source="9I1INDpwfXQejEhpepl7-32" target="9I1INDpwfXQejEhpepl7-48" edge="1">
          <mxGeometry relative="1" as="geometry">
            <Array as="points">
              <mxPoint x="1000" y="340" />
              <mxPoint x="1070" y="340" />
            </Array>
          </mxGeometry>
        </mxCell>
        <mxCell id="9I1INDpwfXQejEhpepl7-51" style="edgeStyle=orthogonalEdgeStyle;rounded=0;orthogonalLoop=1;jettySize=auto;html=1;exitX=0.5;exitY=0;exitDx=0;exitDy=0;entryX=0.5;entryY=1;entryDx=0;entryDy=0;endArrow=none;endFill=0;" parent="1" source="9I1INDpwfXQejEhpepl7-32" target="9I1INDpwfXQejEhpepl7-50" edge="1">
          <mxGeometry relative="1" as="geometry" />
        </mxCell>
        <mxCell id="9I1INDpwfXQejEhpepl7-32" value="PLÁNTEL" style="whiteSpace=wrap;html=1;align=center;" parent="1" vertex="1">
          <mxGeometry x="890" y="360" width="110" height="30" as="geometry" />
        </mxCell>
        <mxCell id="9I1INDpwfXQejEhpepl7-34" value="EMAIL_PLANTEL" style="ellipse;whiteSpace=wrap;html=1;align=center;" parent="1" vertex="1">
          <mxGeometry x="900" y="420" width="100" height="40" as="geometry" />
        </mxCell>
        <mxCell id="9I1INDpwfXQejEhpepl7-35" value="NOM_PLANTEL" style="ellipse;whiteSpace=wrap;html=1;align=center;" parent="1" vertex="1">
          <mxGeometry x="740" y="430" width="100" height="40" as="geometry" />
        </mxCell>
        <mxCell id="9I1INDpwfXQejEhpepl7-36" value="ID_PLANTEL" style="ellipse;whiteSpace=wrap;html=1;align=center;" parent="1" vertex="1">
          <mxGeometry x="750" y="300" width="100" height="40" as="geometry" />
        </mxCell>
        <mxCell id="9I1INDpwfXQejEhpepl7-38" value="ID_MUNICIPIO" style="ellipse;whiteSpace=wrap;html=1;align=center;dashed=1;" parent="1" vertex="1">
          <mxGeometry x="750" y="360" width="100" height="40" as="geometry" />
        </mxCell>
        <mxCell id="9I1INDpwfXQejEhpepl7-46" value="TELEFONO_PLANTEL" style="ellipse;whiteSpace=wrap;html=1;align=center;" parent="1" vertex="1">
          <mxGeometry x="1050" y="355" width="100" height="40" as="geometry" />
        </mxCell>
        <mxCell id="Rhx4nIrISmLSo7I5DOPV-2" value="" style="edgeStyle=orthogonalEdgeStyle;rounded=0;orthogonalLoop=1;jettySize=auto;html=1;endArrow=none;endFill=0;" edge="1" parent="1" source="9I1INDpwfXQejEhpepl7-48" target="9I1INDpwfXQejEhpepl7-46">
          <mxGeometry relative="1" as="geometry" />
        </mxCell>
        <mxCell id="9I1INDpwfXQejEhpepl7-48" value="DIRECCION" style="ellipse;whiteSpace=wrap;html=1;align=center;" parent="1" vertex="1">
          <mxGeometry x="1020" y="280" width="100" height="40" as="geometry" />
        </mxCell>
        <mxCell id="9I1INDpwfXQejEhpepl7-50" value="CLAVE" style="ellipse;whiteSpace=wrap;html=1;align=center;dashed=1;" parent="1" vertex="1">
          <mxGeometry x="900" y="270" width="100" height="40" as="geometry" />
        </mxCell>
        <mxCell id="9I1INDpwfXQejEhpepl7-53" style="edgeStyle=orthogonalEdgeStyle;rounded=0;orthogonalLoop=1;jettySize=auto;html=1;exitX=0.5;exitY=0;exitDx=0;exitDy=0;endArrow=none;endFill=0;" parent="1" source="9I1INDpwfXQejEhpepl7-52" edge="1">
          <mxGeometry relative="1" as="geometry">
            <mxPoint x="840" y="620" as="targetPoint" />
          </mxGeometry>
        </mxCell>
        <mxCell id="9I1INDpwfXQejEhpepl7-55" style="edgeStyle=orthogonalEdgeStyle;rounded=0;orthogonalLoop=1;jettySize=auto;html=1;exitX=1;exitY=0.5;exitDx=0;exitDy=0;endArrow=none;endFill=0;" parent="1" source="9I1INDpwfXQejEhpepl7-52" edge="1">
          <mxGeometry relative="1" as="geometry">
            <mxPoint x="970" y="690" as="targetPoint" />
          </mxGeometry>
        </mxCell>
        <mxCell id="9I1INDpwfXQejEhpepl7-57" style="edgeStyle=orthogonalEdgeStyle;rounded=0;orthogonalLoop=1;jettySize=auto;html=1;exitX=0;exitY=0.5;exitDx=0;exitDy=0;endArrow=none;endFill=0;" parent="1" source="9I1INDpwfXQejEhpepl7-52" edge="1">
          <mxGeometry relative="1" as="geometry">
            <mxPoint x="690" y="690" as="targetPoint" />
          </mxGeometry>
        </mxCell>
        <mxCell id="9I1INDpwfXQejEhpepl7-52" value="TU_USUARIO" style="whiteSpace=wrap;html=1;align=center;" parent="1" vertex="1">
          <mxGeometry x="790" y="670" width="100" height="40" as="geometry" />
        </mxCell>
        <mxCell id="9I1INDpwfXQejEhpepl7-54" value="NOMBRE TUSUARIO" style="ellipse;whiteSpace=wrap;html=1;align=center;" parent="1" vertex="1">
          <mxGeometry x="790" y="585" width="100" height="40" as="geometry" />
        </mxCell>
        <mxCell id="9I1INDpwfXQejEhpepl7-56" value="ID_TUSUARIO" style="ellipse;whiteSpace=wrap;html=1;align=center;" parent="1" vertex="1">
          <mxGeometry x="970" y="670" width="100" height="40" as="geometry" />
        </mxCell>
        <mxCell id="9I1INDpwfXQejEhpepl7-58" value="ID_TUSUARIO" style="ellipse;whiteSpace=wrap;html=1;align=center;" parent="1" vertex="1">
          <mxGeometry x="590" y="670" width="100" height="40" as="geometry" />
        </mxCell>
        <mxCell id="9I1INDpwfXQejEhpepl7-72" value="USUARIO" style="swimlane;fontStyle=0;childLayout=stackLayout;horizontal=1;startSize=26;horizontalStack=0;resizeParent=1;resizeParentMax=0;resizeLast=0;collapsible=1;marginBottom=0;align=center;fontSize=14;" parent="1" vertex="1">
          <mxGeometry x="470" y="830" width="160" height="116" as="geometry" />
        </mxCell>
        <mxCell id="9I1INDpwfXQejEhpepl7-73" value="Item 1" style="text;strokeColor=none;fillColor=none;spacingLeft=4;spacingRight=4;overflow=hidden;rotatable=0;points=[[0,0.5],[1,0.5]];portConstraint=eastwest;fontSize=12;whiteSpace=wrap;html=1;" parent="9I1INDpwfXQejEhpepl7-72" vertex="1">
          <mxGeometry y="26" width="160" height="30" as="geometry" />
        </mxCell>
        <mxCell id="9I1INDpwfXQejEhpepl7-74" value="Item 2" style="text;strokeColor=none;fillColor=none;spacingLeft=4;spacingRight=4;overflow=hidden;rotatable=0;points=[[0,0.5],[1,0.5]];portConstraint=eastwest;fontSize=12;whiteSpace=wrap;html=1;" parent="9I1INDpwfXQejEhpepl7-72" vertex="1">
          <mxGeometry y="56" width="160" height="30" as="geometry" />
        </mxCell>
        <mxCell id="9I1INDpwfXQejEhpepl7-75" value="Item 3" style="text;strokeColor=none;fillColor=none;spacingLeft=4;spacingRight=4;overflow=hidden;rotatable=0;points=[[0,0.5],[1,0.5]];portConstraint=eastwest;fontSize=12;whiteSpace=wrap;html=1;" parent="9I1INDpwfXQejEhpepl7-72" vertex="1">
          <mxGeometry y="86" width="160" height="30" as="geometry" />
        </mxCell>
        <mxCell id="9I1INDpwfXQejEhpepl7-76" value="TU_USUARIO" style="swimlane;fontStyle=0;childLayout=stackLayout;horizontal=1;startSize=26;horizontalStack=0;resizeParent=1;resizeParentMax=0;resizeLast=0;collapsible=1;marginBottom=0;align=center;fontSize=14;" parent="1" vertex="1">
          <mxGeometry x="720" y="830" width="160" height="116" as="geometry" />
        </mxCell>
        <mxCell id="9I1INDpwfXQejEhpepl7-77" value="Tema 1" style="text;strokeColor=none;fillColor=none;spacingLeft=4;spacingRight=4;overflow=hidden;rotatable=0;points=[[0,0.5],[1,0.5]];portConstraint=eastwest;fontSize=12;whiteSpace=wrap;html=1;" parent="9I1INDpwfXQejEhpepl7-76" vertex="1">
          <mxGeometry y="26" width="160" height="30" as="geometry" />
        </mxCell>
        <mxCell id="9I1INDpwfXQejEhpepl7-78" value="Tema 2" style="text;strokeColor=none;fillColor=none;spacingLeft=4;spacingRight=4;overflow=hidden;rotatable=0;points=[[0,0.5],[1,0.5]];portConstraint=eastwest;fontSize=12;whiteSpace=wrap;html=1;" parent="9I1INDpwfXQejEhpepl7-76" vertex="1">
          <mxGeometry y="56" width="160" height="30" as="geometry" />
        </mxCell>
        <mxCell id="9I1INDpwfXQejEhpepl7-79" value="Tema 3" style="text;strokeColor=none;fillColor=none;spacingLeft=4;spacingRight=4;overflow=hidden;rotatable=0;points=[[0,0.5],[1,0.5]];portConstraint=eastwest;fontSize=12;whiteSpace=wrap;html=1;" parent="9I1INDpwfXQejEhpepl7-76" vertex="1">
          <mxGeometry y="86" width="160" height="30" as="geometry" />
        </mxCell>
        <mxCell id="9I1INDpwfXQejEhpepl7-80" value="PLÁNTEL" style="swimlane;fontStyle=0;childLayout=stackLayout;horizontal=1;startSize=26;horizontalStack=0;resizeParent=1;resizeParentMax=0;resizeLast=0;collapsible=1;marginBottom=0;align=center;fontSize=14;" parent="1" vertex="1">
          <mxGeometry x="970" y="830" width="160" height="116" as="geometry" />
        </mxCell>
        <mxCell id="9I1INDpwfXQejEhpepl7-81" value="Item 1" style="text;strokeColor=none;fillColor=none;spacingLeft=4;spacingRight=4;overflow=hidden;rotatable=0;points=[[0,0.5],[1,0.5]];portConstraint=eastwest;fontSize=12;whiteSpace=wrap;html=1;" parent="9I1INDpwfXQejEhpepl7-80" vertex="1">
          <mxGeometry y="26" width="160" height="30" as="geometry" />
        </mxCell>
        <mxCell id="9I1INDpwfXQejEhpepl7-82" value="Item 2" style="text;strokeColor=none;fillColor=none;spacingLeft=4;spacingRight=4;overflow=hidden;rotatable=0;points=[[0,0.5],[1,0.5]];portConstraint=eastwest;fontSize=12;whiteSpace=wrap;html=1;" parent="9I1INDpwfXQejEhpepl7-80" vertex="1">
          <mxGeometry y="56" width="160" height="30" as="geometry" />
        </mxCell>
        <mxCell id="9I1INDpwfXQejEhpepl7-83" value="Item 3" style="text;strokeColor=none;fillColor=none;spacingLeft=4;spacingRight=4;overflow=hidden;rotatable=0;points=[[0,0.5],[1,0.5]];portConstraint=eastwest;fontSize=12;whiteSpace=wrap;html=1;" parent="9I1INDpwfXQejEhpepl7-80" vertex="1">
          <mxGeometry y="86" width="160" height="30" as="geometry" />
        </mxCell>
      </root>
    </mxGraphModel>
  </diagram>
</mxfile>
